# xmcd
#
# Track frame offsets: 
#        150
#        10036
#        24497
#
# Disc length: 522 seconds
#
# Revision: 0
# Processed by: cddbd v1.5.2PL0 Copyright (c) Steve Scherf et al.
# Submitted via: ExactAudioCopy v0.99pb3
#
DISCID=14020803
DTITLE=The Features - The Way It's Meant To Be
DYEAR=2004
DGENRE=Fierce Panda
TTITLE0=The Way It's Meant To Be
TTITLE1=Someway, Somehow
TTITLE2=Buffalo Head
EXTD=
EXTT0=
EXTT1=
EXTT2=
PLAYORDER=
